<?xml version="1.0" encoding="UTF-8"?>
<svg id="Capa_2" xmlns="http://www.w3.org/2000/svg" xmlns:xlink="http://www.w3.org/1999/xlink" viewBox="0 0 525.9 91.13">
  <defs>
    <style>
      .cls-1 {
        fill: url(#Degradado_sin_nombre_11);
      }

      .cls-2 {
        fill: #fff;
      }
    </style>
    <linearGradient id="Degradado_sin_nombre_11" data-name="Degradado sin nombre 11" x1="4.46" y1="77.47" x2="76.24" y2="5.69" gradientUnits="userSpaceOnUse">
      <stop offset="0" stop-color="#3dbbed"/>
      <stop offset="1" stop-color="#285ea9"/>
    </linearGradient>
  </defs>
  <g id="Capa_1-2" data-name="Capa_1">
    <g>
      <path class="cls-1" d="M89.35,18.81h-17.54L52.46,0H18.11v18.81H0v54.21l.93.93,11.39,11.39,5.78,5.78h17.36v-17.18h36.34v-18.44h17.54V18.81ZM57.9,45.91h-16.46v-16.98h16.46v16.98ZM12.33,28.93h16.63v16.98H12.33v-16.98Z"/>
      <g>
        <path class="cls-2" d="M143.71,7.68h14.45v50.41c0,6.31-1.91,11.38-5.72,15.23-3.81,3.85-9.46,5.77-16.94,5.77-6.72,0-11.95-1.78-15.7-5.35-3.74-3.57-5.61-8.92-5.61-16.06v-7.07h13.1v6.34c0,3.53.62,6.15,1.87,7.85,1.25,1.7,3.36,2.55,6.34,2.55,3.33,0,5.52-.81,6.6-2.44,1.07-1.63,1.61-4.35,1.61-8.16V7.68Z"/>
        <path class="cls-2" d="M195.68,76.69c-.42-1.32-.69-2.84-.83-4.57-1.59,1.8-3.71,3.24-6.34,4.31-2.63,1.07-5.68,1.61-9.15,1.61-5.89,0-10.2-1.3-12.94-3.9-2.74-2.6-4.11-5.98-4.11-10.13,0-3.67.59-6.6,1.77-8.78,1.18-2.18,2.81-3.9,4.89-5.15,2.08-1.25,4.56-2.17,7.43-2.75,2.87-.59,6.01-1.13,9.41-1.61,3.39-.48,5.68-1.13,6.86-1.92,1.18-.8,1.77-2.1,1.77-3.9,0-1.66-.78-2.96-2.34-3.9-1.56-.94-3.66-1.4-6.29-1.4-3.12,0-5.35.69-6.7,2.08-1.35,1.39-2.2,3.22-2.55,5.51h-12.58c.07-2.63.5-5.06,1.3-7.28.8-2.22,2.08-4.12,3.85-5.72,1.77-1.59,4.07-2.82,6.91-3.69,2.84-.87,6.3-1.3,10.39-1.3s7.43.45,10.24,1.35c2.81.9,5.06,2.2,6.76,3.9,1.7,1.7,2.93,3.81,3.69,6.34.76,2.53,1.14,5.39,1.14,8.58v32.33h-12.58ZM194.75,51.64c-.69.69-1.7,1.25-3.01,1.66-1.32.42-3.22.87-5.72,1.35-3.88.76-6.55,1.73-8,2.91-1.46,1.18-2.18,2.88-2.18,5.09,0,3.81,2.18,5.72,6.55,5.72,1.73,0,3.34-.29,4.83-.88,1.49-.59,2.77-1.39,3.85-2.39,1.07-1,1.94-2.18,2.6-3.53.66-1.35.99-2.79.99-4.31l.1-5.61Z"/>
        <path class="cls-2" d="M214.18,76.69V25.55h12.68v6.13c1.11-1.73,2.27-3.08,3.48-4.05,1.21-.97,2.46-1.71,3.74-2.23,1.28-.52,2.58-.85,3.9-.99,1.32-.14,2.67-.21,4.05-.21h1.77v13.82c-1.25-.21-2.49-.31-3.74-.31-8.25,0-12.37,4.12-12.37,12.37v26.61h-13.51Z"/>
        <path class="cls-2" d="M263.45,76.69l-18.29-51.14h15.07l10.71,33.78,10.81-33.78h14.24l-18.4,51.14h-14.14Z"/>
        <path class="cls-2" d="M299.94,19.42V6.84h13.51v12.58h-13.51ZM299.94,76.69V25.55h13.51v51.14h-13.51Z"/>
        <path class="cls-2" d="M350.35,41.04c-.35-2.49-1.25-4.24-2.7-5.25-1.46-1-3.74-1.51-6.86-1.51-2.56,0-4.54.33-5.92.99-1.39.66-2.08,1.75-2.08,3.27s.69,2.69,2.08,3.48c1.39.8,3.46,1.58,6.24,2.34,2.91.83,5.68,1.58,8.32,2.23,2.63.66,4.95,1.37,6.96,2.13,2.7,1.11,4.78,2.62,6.24,4.52,1.46,1.91,2.18,4.52,2.18,7.85,0,5.34-1.89,9.49-5.66,12.47-3.78,2.98-9.34,4.47-16.68,4.47-7.9,0-13.95-1.66-18.14-4.99-4.19-3.33-6.36-7.59-6.5-12.78h13.93c0,2.43.94,4.3,2.81,5.61,1.87,1.32,4.47,1.98,7.8,1.98,2.42,0,4.54-.4,6.34-1.2,1.8-.8,2.7-2.17,2.7-4.11,0-1.8-.81-3.08-2.44-3.85-1.63-.76-3.55-1.42-5.77-1.98-4.3-1.04-7.76-1.98-10.39-2.81-2.63-.83-4.85-1.83-6.65-3.01-2.43-1.52-4.11-3.26-5.04-5.2-.94-1.94-1.4-4.05-1.4-6.34,0-2.15.38-4.16,1.14-6.03.76-1.87,2.01-3.48,3.74-4.83,1.73-1.35,3.97-2.41,6.7-3.17,2.74-.76,6.04-1.14,9.93-1.14,7.41,0,12.87,1.42,16.37,4.26,3.5,2.84,5.42,7.03,5.77,12.58h-12.99Z"/>
        <path class="cls-2" d="M368.33,76.69V7.68h33.99c6.79,0,11.95,1.68,15.49,5.04,3.53,3.36,5.3,7.95,5.3,13.77,0,2.98-.8,5.63-2.39,7.95-1.59,2.32-3.6,3.97-6.03,4.94,1.46.56,2.82,1.27,4.11,2.13,1.28.87,2.39,1.98,3.33,3.33s1.68,2.95,2.23,4.78c.55,1.84.83,4,.83,6.5,0,6.31-2.11,11.31-6.34,15.02-4.23,3.71-10.71,5.56-19.44,5.56h-31.08ZM382.26,19.63v14.97h18.19c5.82,0,8.73-2.49,8.73-7.48,0-2.63-.75-4.54-2.23-5.72-1.49-1.18-3.93-1.77-7.33-1.77h-17.36ZM400.55,64.95c3.33,0,5.92-.94,7.8-2.81,1.87-1.87,2.81-4.23,2.81-7.07,0-3.05-.92-5.27-2.75-6.65-1.84-1.39-4.38-2.08-7.64-2.08h-18.5v18.61h18.29Z"/>
        <path class="cls-2" d="M453.46,78.05c-4.16,0-7.87-.66-11.12-1.97-3.26-1.32-6.01-3.15-8.26-5.51-2.25-2.35-3.97-5.2-5.15-8.52-1.18-3.33-1.77-6.96-1.77-10.91s.61-7.69,1.82-11.02c1.21-3.33,2.96-6.17,5.25-8.52,2.29-2.35,5.04-4.17,8.26-5.46,3.22-1.28,6.88-1.92,10.97-1.92s7.62.64,10.81,1.92c3.19,1.28,5.91,3.08,8.16,5.41,2.25,2.32,3.98,5.15,5.2,8.47,1.21,3.33,1.82,7.03,1.82,11.12s-.61,7.78-1.82,11.07c-1.21,3.29-2.95,6.12-5.2,8.47-2.25,2.36-4.99,4.18-8.21,5.46-3.22,1.28-6.81,1.92-10.76,1.92ZM453.46,66.72c8.25,0,12.37-5.2,12.37-15.59s-4.12-15.49-12.37-15.49-12.37,5.16-12.37,15.49,4.12,15.59,12.37,15.59Z"/>
        <path class="cls-2" d="M513.33,43.02h12.58v14.55c0,2.7-.4,5.28-1.2,7.74-.8,2.46-2.04,4.64-3.74,6.55-1.7,1.91-3.85,3.41-6.44,4.52-2.6,1.11-5.7,1.66-9.3,1.66s-6.93-.56-9.56-1.66c-2.63-1.11-4.8-2.6-6.5-4.47-1.7-1.87-2.93-4.05-3.69-6.55-.76-2.49-1.14-5.13-1.14-7.9V11.73h13.3v13.82h28.27v9.56h-28.27v21c0,3.26.61,5.77,1.82,7.54,1.21,1.77,3.2,2.65,5.98,2.65s4.69-.87,5.98-2.6c1.28-1.73,1.92-4.19,1.92-7.38v-13.3Z"/>
      </g>
    </g>
  </g>
</svg>